<?xml version="1.0" encoding="UTF-8"?>
<svg id="Layer_2" data-name="Layer 2" xmlns="http://www.w3.org/2000/svg" width="470.09mm" height="180.37mm" viewBox="0 0 1332.53 511.28">
  <defs>
    <style>
      .cls-1, .cls-2 {
        fill: #2c51a3;
      }

      .cls-3 {
        fill: #27c1f1;
      }

      .cls-3, .cls-2 {
        fill-rule: evenodd;
      }
    </style>
  </defs>
  <g id="katman_1" data-name="katman 1">
    <g>
      <polygon class="cls-2" points="266.4 247.91 266.4 112.19 266.4 89.65 266.4 2.21 20.7 247.91 266.4 247.91"/>
      <polygon class="cls-2" points="266.4 262.99 266.4 398.71 266.4 421.25 266.4 508.69 20.7 262.99 266.4 262.99"/>
      <polygon class="cls-2" points="518.32 509.85 446.03 509.85 412.31 509.85 281.48 509.85 281.48 415.28 281.48 415.28 281.48 273 518.32 509.85"/>
      <polygon class="cls-2" points="281.48 1.06 281.48 131.88 281.48 153.61 281.48 237.9 518.33 1.06 281.48 1.06"/>
      <polygon class="cls-3" points="0 0 0 137.15 0 159.93 0 248.29 248.29 0 0 0"/>
      <polygon class="cls-3" points="0 511.28 137.15 511.28 159.93 511.28 248.29 511.28 0 262.99 0 511.28"/>
      <polygon class="cls-1" points="508.18 203.75 539.74 203.75 539.74 250.63 593.05 203.75 633.19 203.75 573.14 255.99 635.79 317.73 594.58 317.73 539.74 264.11 539.74 317.73 508.18 317.73 508.18 203.75"/>
      <g>
        <path class="cls-1" d="M772.02,258.14v4.6c0,24.51-15.17,56.84-68.48,56.84h-6.74c-53.31,0-68.48-32.32-68.48-56.84v-4.6c0-24.82,15.17-56.22,68.48-56.22h6.74c53.31,0,68.48,31.25,68.48,56.22M700.17,227.96c-31.87,0-39.07,17.31-39.07,31.41v2.15c0,13.79,7.66,31.86,39.07,31.86s39.06-18.08,39.06-31.86v-2.15c0-14.09-6.89-31.41-39.06-31.41"/>
        <path class="cls-1" d="M783.5,281.88v-1.68h34.32c.46,5.06,2.6,16.39,26.81,16.39h1.07c23.75,0,26.81-7.05,26.81-13.63s-4.44-11.03-23.29-11.8l-15.17-.46c-37.38-1.23-49.33-16.09-49.33-33.24v-1.38c0-17.77,9.5-33.7,56.68-33.7h5.21c50.4,0,57.3,18.38,57.3,33.4v1.69h-33.86c-.77-5.06-3.52-12.56-25.58-12.56h-1.53c-20.22,0-24.97,3.83-24.97,10.11,0,5.82,4.14,10.11,22.06,10.88l15.78.61c40.6,1.69,50.4,14.86,50.4,33.4v1.84c0,16.7-7.66,37.99-58.67,37.99h-4.44c-53.47,0-59.59-24.21-59.59-37.84"/>
        <path class="cls-1" d="M918.09,262.43v-4.14c0-24.21,14.71-56.07,66.64-56.07h5.21c49.64,0,65.42,21.6,65.42,40.44v.31h-32.63c-1.22-2.91-5.67-15.01-35.23-15.01-28.04,0-36.61,15.78-36.61,31.1v1.99c0,14.86,9.5,32.63,37.69,32.63s32.94-14.4,33.4-17.77h-30.95v-20.38h65.72v62.2h-25.12c-.46-4.14-2.14-12.1-3.83-15.78-2.45,3.22-14.4,17.46-41.21,17.46h-2.45c-50.25,0-66.03-31.41-66.03-56.99"/>
        <polygon class="cls-1" points="1182.06 228.57 1108.83 228.57 1108.83 247.11 1179.76 247.11 1179.76 272.84 1108.83 272.84 1108.83 292.61 1182.98 292.61 1182.98 317.73 1077.73 317.73 1077.73 203.75 1182.06 203.75 1182.06 228.57"/>
        <path class="cls-1" d="M1286.11,203.75c32.63,0,40.75,14.25,40.75,26.96v1.68c0,14.4-12.41,21.29-20.99,22.52,12.87,2.15,26.66,9.8,26.66,28.19v1.69c0,15.47-9.35,32.94-45.96,32.94h-83.65v-113.98h83.19ZM1234.48,247.87h47.03c9.65,0,12.41-4.6,12.41-9.96v-.31c0-5.52-3.06-10.11-12.41-10.11h-47.03v20.38ZM1234.48,292.76h49.48c11.03,0,14.25-5.82,14.25-11.49v-.61c0-5.67-3.22-10.42-14.25-10.42h-49.48v22.52Z"/>
      </g>
    </g>
  </g>
</svg>