<svg xmlns="http://www.w3.org/2000/svg" viewBox="0 0 32 32" fill="none">
  <rect width="32" height="32" rx="6" fill="#2c3e50"/>
  <path
    fill="#ff6b35"
    d="M4 18.5c0-.8.6-1.5 1.4-1.6l1.8-.2 1.5-3.2c.4-.8 1.2-1.4 2.1-1.4h11.4c.9 0 1.7.6 2.1 1.4l1.5 3.2 1.8.2c.8.1 1.4.8 1.4 1.6v1.5c0 .6-.4 1-1 1h-2.2c-.2-1.7-1.7-3-3.5-3s-3.3 1.3-3.5 3h-7c-.2-1.7-1.7-3-3.5-3s-3.3 1.3-3.5 3H5c-.6 0-1-.4-1-1v-1.5Z"
  />
  <path fill="#e85a2f" d="M9 13.5h14l-1.2-2.4c-.2-.4-.6-.6-1-.6H11.2c-.4 0-.8.2-1 .6L9 13.5Z"/>
  <circle cx="9.5" cy="21" r="2.2" fill="#1a252f" stroke="#fff" stroke-width="1"/>
  <circle cx="22.5" cy="21" r="2.2" fill="#1a252f" stroke="#fff" stroke-width="1"/>
</svg>
